<svg width="67" height="67" viewBox="0 0 67 67" fill="none" xmlns="http://www.w3.org/2000/svg">
<g clip-path="url(#clip0_48_2)">
<path d="M52.17 66.53H14.36C10.5523 66.5274 6.90132 65.0136 4.20887 62.3211C1.51642 59.6287 0.00264883 55.9777 0 52.17L0 14.36C0.00264883 10.5523 1.51642 6.90132 4.20887 4.20887C6.90132 1.51642 10.5523 0.00264883 14.36 0L52.17 0C55.9777 0.00264883 59.6287 1.51642 62.3211 4.20887C65.0136 6.90132 66.5274 10.5523 66.53 14.36V52.17C66.5274 55.9777 65.0136 59.6287 62.3211 62.3211C59.6287 65.0136 55.9777 66.5274 52.17 66.53ZM14.36 3C11.3488 3.00529 8.46238 4.20384 6.33311 6.33311C4.20384 8.46238 3.00529 11.3488 3 14.36V52.17C3.00265 55.182 4.20035 58.07 6.33019 60.1998C8.46003 62.3297 11.348 63.5274 14.36 63.53H52.17C55.182 63.5274 58.07 62.3297 60.1998 60.1998C62.3297 58.07 63.5274 55.182 63.53 52.17V14.36C63.5274 11.348 62.3297 8.46003 60.1998 6.33019C58.07 4.20035 55.182 3.00265 52.17 3H14.36Z" fill="#1396AB"/>
</g>
<defs>
<clipPath id="clip0_48_2">
<rect width="66.53" height="66.53" fill="white"/>
</clipPath>
</defs>
</svg>
