<svg width="64" height="64" viewBox="0 0 64 64" fill="none" xmlns="http://www.w3.org/2000/svg">
<g clip-path="url(#clip0_49_2)">
<path d="M50.67 0H12.86C9.44932 0 6.17832 1.35489 3.76661 3.76661C1.35489 6.17832 0 9.44932 0 12.86L0 50.67C0 54.0807 1.35489 57.3517 3.76661 59.7634C6.17832 62.1751 9.44932 63.53 12.86 63.53H50.67C52.3592 63.5313 54.032 63.1996 55.5929 62.5538C57.1537 61.908 58.5719 60.9608 59.7663 59.7663C60.9608 58.5719 61.908 57.1537 62.5538 55.5929C63.1996 54.032 63.5313 52.3592 63.53 50.67V12.86C63.53 9.44932 62.1751 6.17832 59.7634 3.76661C57.3517 1.35489 54.0807 0 50.67 0ZM26.67 49.53L10.14 33L17.14 26L26.65 35.51L46.42 15.78L53.42 22.78L26.67 49.53Z" fill="#1396AB"/>
</g>
<defs>
<clipPath id="clip0_49_2">
<rect width="63.53" height="63.53" fill="white"/>
</clipPath>
</defs>
</svg>
